<svg id="레이어_1" data-name="레이어 1" xmlns="http://www.w3.org/2000/svg" xmlns:xlink="http://www.w3.org/1999/xlink" viewBox="0 0 144.67 144.67"><defs><linearGradient id="무제_그라디언트_17" x1="30.03" y1="72.33" x2="128.28" y2="72.33" gradientUnits="userSpaceOnUse"><stop offset="0" stop-color="#2fbdf0"/><stop offset="0.5" stop-color="#fcc800"/><stop offset="1" stop-color="#eb6ea5"/></linearGradient></defs><title>ITD</title><rect width="144.67" height="144.67" rx="30.17" ry="30.17" style="fill:#fff"/><path d="M88.53,90.09a3.42,3.42,0,0,0-4.31-2.19,16.12,16.12,0,0,1-5.08.81A16.39,16.39,0,0,1,62.77,72.42s0-.06,0-.09a23.2,23.2,0,0,0-46.39,0,3.41,3.41,0,0,0,6.82,0A16.37,16.37,0,0,1,56,72.25s0,0,0,.08a23.21,23.21,0,0,0,30.4,22.06A3.42,3.42,0,0,0,88.53,90.09Z"/><path d="M118.73,95.53a23.23,23.23,0,0,1-23-19.79l-.26-3.41a16.38,16.38,0,0,0-32.74-.6v.6a23.21,23.21,0,0,1-30.4,22.06A3.41,3.41,0,0,1,34.5,87.9a16.12,16.12,0,0,0,5.08.81A16.4,16.4,0,0,0,56,72.94v-.61a23.2,23.2,0,0,1,46.15-3.41l.26,3.41a16.4,16.4,0,0,0,16.38,16.38,16.12,16.12,0,0,0,5.08-.81,3.41,3.41,0,0,1,2.12,6.49A23.07,23.07,0,0,1,118.73,95.53Z" style="fill:url(#무제_그라디언트_17)"/></svg>