<svg id="레이어_1" data-name="레이어 1" xmlns="http://www.w3.org/2000/svg" xmlns:xlink="http://www.w3.org/1999/xlink" viewBox="0 0 46.32 17.48"><defs><linearGradient id="무제_그라디언트_17" x1="3.37" y1="7.94" x2="27.62" y2="7.94" gradientUnits="userSpaceOnUse"><stop offset="0" stop-color="#2fbdf0"/><stop offset="0.5" stop-color="#fcc800"/><stop offset="1" stop-color="#eb6ea5"/></linearGradient><linearGradient id="무제_그라디언트_17-2" x1="167.49" y1="-15.59" x2="171.39" y2="-15.59" gradientTransform="translate(-64.41 132.79) rotate(-45)" xlink:href="#무제_그라디언트_17"/></defs><title>ITD</title><path d="M35.63,2.26A5.72,5.72,0,0,0,30.13,5,5.72,5.72,0,0,0,19.59,7.1h-8.2A5.72,5.72,0,0,0,0,7.94H0v8.7a.85.85,0,0,0,.84.84h0a.84.84,0,0,0,.84-.84V8s0,0,0-.07a4,4,0,0,1,8.08,0v0a5.74,5.74,0,0,0,5.73,5.73,5.63,5.63,0,0,0,1.73-.27.86.86,0,0,0,.61-.93.84.84,0,0,0-1.09-.68,4.08,4.08,0,0,1-1.25.19,4,4,0,0,1-4-3.19H29.29v7.85a.84.84,0,0,0,.84.84h0a.85.85,0,0,0,.84-.84V7.94h0a4,4,0,1,1,2.79,3.85.84.84,0,0,0-1.1.68.87.87,0,0,0,.62.93,5.63,5.63,0,0,0,1.73.27,5.72,5.72,0,0,0,.62-11.41ZM25.25,3.91A4,4,0,0,1,29.2,7.1H21.3A4,4,0,0,1,25.25,3.91Z"/><path d="M25.26,13.67a5.74,5.74,0,0,1-5.67-4.88h-.06V7.94a4,4,0,0,0-8.08-.14v.14a5.74,5.74,0,0,1-5.73,5.73A5.9,5.9,0,0,1,4,13.39a.84.84,0,0,1-.54-1.06.83.83,0,0,1,1.06-.54,4,4,0,0,0,5.29-3.7V7.94A5.73,5.73,0,0,1,21.15,7.1h.06v.84a4,4,0,0,0,5.29,3.85.84.84,0,0,1,.53,1.6A6,6,0,0,1,25.26,13.67Z" style="fill:url(#무제_그라디언트_17)"/><circle cx="44.37" cy="1.95" r="1.95" style="fill:url(#무제_그라디언트_17-2)"/></svg>