<svg id="레이어_1" data-name="레이어 1" xmlns="http://www.w3.org/2000/svg" viewBox="0 0 166.41 57.06"><title>ITD</title><rect width="166.41" height="57.06" rx="14.17" ry="14.17" style="fill:#f6f7f9"/><circle cx="25.66" cy="28.53" r="8.66" style="fill:#fbc600"/><path d="M50,22h1.86v4.8h5V22h1.86V33.79H56.92V28.43h-5v5.36H50Z"/><path d="M67.3,30.43H63.2l-1,3.36H60.31L64.21,22h2.15l3.9,11.78h-2ZM66.85,29l-.46-1.58c-.4-1.28-.75-2.6-1.12-3.93H65.2c-.33,1.35-.7,2.65-1.08,3.93L63.64,29Z"/><path d="M71.81,22h3.57c2.63,0,4.5.9,4.5,3.55S78,29.32,75.45,29.32H73.67v4.47H71.81Zm3.46,5.82c1.89,0,2.78-.72,2.78-2.27s-1-2.06-2.85-2.06H73.67v4.33Z"/><path d="M82.16,22h3.57c2.63,0,4.5.9,4.5,3.55s-1.87,3.76-4.43,3.76H84v4.47H82.16Zm3.46,5.82c1.89,0,2.79-.72,2.79-2.27s-1-2.06-2.85-2.06H84v4.33Z"/><path d="M94.28,29.32,90.74,22h2l1.36,3.12c.37.88.71,1.7,1.11,2.59h.06c.39-.89.77-1.71,1.12-2.59L97.75,22h1.94l-3.56,7.31v4.47H94.28Z"/></svg>