<svg id="레이어_1" data-name="레이어 1" xmlns="http://www.w3.org/2000/svg" viewBox="0 0 166.41 57.06"><title>ITD</title><rect width="166.41" height="57.06" rx="14.17" ry="14.17" style="fill:#f6f7f9"/><path d="M25.66,38.19a9.66,9.66,0,1,1,9.66-9.66A9.67,9.67,0,0,1,25.66,38.19Zm0-17.31a7.66,7.66,0,1,0,7.66,7.65A7.66,7.66,0,0,0,25.66,20.88Z" style="fill:#fbc600"/><path d="M50,22h1.86v4.8h5V22h1.86V33.79H56.92V28.43h-5v5.36H50Z"/><path d="M67.3,30.43H63.21l-1,3.36H60.31L64.21,22h2.15l3.9,11.78h-2ZM66.85,29l-.46-1.58c-.4-1.28-.75-2.6-1.12-3.92h-.06c-.34,1.34-.71,2.64-1.09,3.92L63.64,29Z"/><path d="M71.81,22h3.57c2.63,0,4.5.9,4.5,3.55S78,29.32,75.45,29.32H73.67v4.47H71.81Zm3.46,5.82c1.89,0,2.79-.72,2.79-2.27s-1-2.06-2.85-2.06H73.67v4.33Z"/><path d="M82.16,22h3.57c2.63,0,4.5.9,4.5,3.55s-1.87,3.76-4.43,3.76H84v4.47H82.16Zm3.46,5.82c1.89,0,2.79-.72,2.79-2.27s-1-2.06-2.85-2.06H84v4.33Z"/><path d="M94.28,29.32,90.74,22h2l1.36,3.12c.37.88.71,1.7,1.11,2.59h.06c.39-.89.77-1.71,1.12-2.59L97.75,22h1.94l-3.56,7.31v4.47H94.28Z"/></svg>