<svg id="레이어_1" data-name="레이어 1" xmlns="http://www.w3.org/2000/svg" viewBox="0 0 84.47 108.01"><title>ITD</title><path d="M83.52,44.79C82.38,32.48,76.17,0,42.23,0h-.15C1.16,0,.55,47.21.54,49.36v.09c0,1,0,2.49.14,4.22C1.51,66.31,7,94.82,42.08,107.9h0v.1h.3v-.09h0c35-13.06,40.55-41.49,41.4-54.16v-.07c.12-1.77.14-3.23.14-4.29A28.79,28.79,0,0,0,83.52,44.79Z" style="fill:#fff"/><circle cx="29.73" cy="56.17" r="3"/><circle cx="54.05" cy="56.17" r="3"/><path d="M41.9,75.37a14,14,0,0,1-8.07-2.68l-.36-.24a1.39,1.39,0,0,1,1.58-2.29l.36.25a10.78,10.78,0,0,0,13.29-.23,1.39,1.39,0,1,1,1.64,2.24A14.16,14.16,0,0,1,41.9,75.37Z"/><path d="M21.34,95.26H7.43A7.43,7.43,0,0,1,0,87.83V74a2.5,2.5,0,0,1,5,0V87.83a2.43,2.43,0,0,0,2.43,2.43H21.34a2.5,2.5,0,1,1,0,5Z"/><path d="M77,95.26H63.12a2.5,2.5,0,1,1,0-5H77a2.43,2.43,0,0,0,2.44-2.43V74a2.5,2.5,0,0,1,5,0V87.83A7.44,7.44,0,0,1,77,95.26Z"/><path d="M82,38a2.5,2.5,0,0,1-2.5-2.5V21.63A2.43,2.43,0,0,0,77,19.2H63.12a2.5,2.5,0,0,1,0-5H77a7.44,7.44,0,0,1,7.44,7.43V35.5A2.5,2.5,0,0,1,82,38Z"/><path d="M2.5,38A2.5,2.5,0,0,1,0,35.5V21.63A7.43,7.43,0,0,1,7.43,14.2H21.34a2.5,2.5,0,0,1,0,5H7.43A2.43,2.43,0,0,0,5,21.63V35.5A2.5,2.5,0,0,1,2.5,38Z"/></svg>