<svg id="레이어_1" data-name="레이어 1" xmlns="http://www.w3.org/2000/svg" viewBox="0 0 166.41 57.06"><title>ITD</title><rect width="166.41" height="57.06" rx="14.17" ry="14.17" style="fill:#f6f7f9"/><path d="M49.19,21.82h7.06v1.57H51.07V27h4.4V28.6h-4.4v5.13H49.19Z" style="fill:#231815"/><path d="M58.35,21.82h7v1.57H60.23v3.32H64.6v1.58H60.23v3.86h5.34v1.58H58.35Z" style="fill:#231815"/><path d="M73.56,30.33H69.42l-1,3.4H66.49l4-11.91h2.17l4,11.91h-2Zm-.45-1.47-.47-1.6c-.4-1.3-.76-2.62-1.13-4h-.07c-.34,1.36-.71,2.67-1.1,4l-.48,1.6Z" style="fill:#231815"/><path d="M84.63,33.73l-2.7-4.8H80v4.8H78.13V21.82H82c2.46,0,4.3.87,4.3,3.45a3.31,3.31,0,0,1-2.49,3.41l2.92,5ZM80,27.42h1.8c1.73,0,2.67-.71,2.67-2.15s-.94-1.95-2.67-1.95H80Z" style="fill:#231815"/><ellipse cx="23.38" cy="24.77" rx="7.85" ry="1.25" transform="translate(-10.61 27.08) rotate(-50.54)" style="fill:#68579a"/><ellipse cx="25.66" cy="28.86" rx="7.85" ry="1.25" transform="translate(-12.93 30.33) rotate(-50.54)" style="fill:#68579a"/><ellipse cx="27.94" cy="32.95" rx="7.85" ry="1.25" transform="translate(-15.25 33.58) rotate(-50.54)" style="fill:#68579a"/></svg>