<svg id="레이어_1" data-name="레이어 1" xmlns="http://www.w3.org/2000/svg" viewBox="0 0 166.33 108.74"><title>ITD</title><rect x="-0.04" y="0.11" width="166.41" height="108.51" rx="14.17" ry="14.17" style="fill:#f6f7f9"/><text transform="translate(39.04 76.31)" style="font-size:11px;fill:#635492;font-family:NotoSansCJKkr-Medium-KSCpc-EUC-H, Noto Sans CJK KR">#어두운 #독주곡</text><path d="M157,90.58a.69.69,0,0,1,0,1.23l-6.11,4.1L145,99.85c-.63.43-1.15.15-1.15-.61V83.16c0-.77.52-1,1.15-.62l5.88,3.94Z" style="fill:#231815"/><text transform="translate(39.04 34.19)" style="font-size:16px;fill:#231815;font-family:NotoSansCJKkr-Medium-KSCpc-EUC-H, Noto Sans CJK KR">오싹 오싹<tspan x="0" y="19.2">FEAR</tspan></text><ellipse cx="13.95" cy="24.89" rx="7.85" ry="1.25" transform="translate(-14.13 19.84) rotate(-50.54)" style="fill:#635492"/><ellipse cx="16.23" cy="28.97" rx="7.85" ry="1.25" transform="translate(-16.45 23.09) rotate(-50.54)" style="fill:#635492"/><ellipse cx="18.51" cy="33.06" rx="7.85" ry="1.25" transform="translate(-18.78 26.34) rotate(-50.54)" style="fill:#635492"/></svg>