<svg id="레이어_1" data-name="레이어 1" xmlns="http://www.w3.org/2000/svg" viewBox="0 0 166.8 108.44"><title>ITD</title><rect x="0.36" y="0.23" width="166.41" height="108.51" rx="14.17" ry="14.17" style="fill:#f6f7f9"/><text transform="translate(39.87 76.42)" style="font-size:11px;fill:#009fe8;font-family:NotoSansCJKkr-Medium-KSCpc-EUC-H, Noto Sans CJK KR">#우울 #발라드</text><path d="M158.93,90.69a.7.7,0,0,1,0,1.24L152.81,96,146.94,100c-.64.42-1.16.15-1.16-.62V83.27c0-.76.52-1,1.16-.62l5.87,3.95Z" style="fill:#231815"/><text transform="translate(39.87 34.02)" style="font-size:16px;fill:#231815;font-family:NotoSansCJKkr-Medium-KSCpc-EUC-H, Noto Sans CJK KR">눈물이 핑<tspan x="0" y="19.2">B</tspan><tspan x="10.67" y="19.2" style="letter-spacing:-0.03497314453125em">L</tspan><tspan x="19.02" y="19.2">UE</tspan></text><path d="M24.76,30.86c0-6.91-7.7-11.9-7.7-11.9s-7.7,5-7.7,11.9a6,6,0,0,0,.13,1.29,7.67,7.67,0,0,0,15.14,0A6,6,0,0,0,24.76,30.86Z" style="fill:#009fe8"/></svg>