<svg id="레이어_1" data-name="레이어 1" xmlns="http://www.w3.org/2000/svg" viewBox="0 0 166.41 57.06"><title>ITD</title><rect width="166.41" height="57.06" rx="14.17" ry="14.17" style="fill:#f6f7f9"/><path d="M50,22h3.65c2.42,0,4.16.77,4.16,2.9a2.61,2.61,0,0,1-1.68,2.54v.08a2.71,2.71,0,0,1,2.32,2.8c0,2.34-1.9,3.46-4.51,3.46H50Zm3.44,4.91c1.79,0,2.55-.67,2.55-1.77s-.84-1.7-2.5-1.7H51.88v3.47Zm.29,5.41c1.84,0,2.9-.65,2.9-2.09s-1-1.91-2.9-1.91H51.88v4Z"/><path d="M60.69,22h1.86V32.22h5v1.57H60.69Z"/><path d="M69,28.73V22h1.86v6.85c0,2.66,1,3.52,2.52,3.52s2.58-.86,2.58-3.52V22h1.79v6.72C77.73,32.57,76,34,73.36,34S69,32.57,69,28.73Z"/><path d="M80.77,22h7v1.55h-5.1v3.28H87v1.57H82.63v3.81h5.28v1.57H80.77Z"/><path d="M33.36,30.63c0-6.91-7.7-11.9-7.7-11.9s-7.7,5-7.7,11.9a6,6,0,0,0,.13,1.29,7.67,7.67,0,0,0,15.14,0A6,6,0,0,0,33.36,30.63Z" style="fill:#009fe8"/></svg>