<svg id="레이어_1" data-name="레이어 1" xmlns="http://www.w3.org/2000/svg" viewBox="0 0 166.41 57.06"><title>ITD</title><rect width="166.41" height="57.06" rx="14.17" ry="14.17" style="fill:#f6f7f9"/><path d="M56,30.47H51.89l-1,3.39H49L52.91,22h2.17l4,11.91H57ZM55.58,29l-.47-1.6c-.4-1.3-.76-2.62-1.13-4h-.06c-.34,1.36-.72,2.67-1.1,4L52.33,29Z" style="fill:#231815"/><path d="M60.6,22h1.93l4,7,1.24,2.53h.08c-.09-1.23-.24-2.67-.24-4V22h1.78V33.86H67.42l-4-7-1.25-2.49h-.08c.1,1.23.24,2.6.24,3.9v5.61H60.6Z" style="fill:#231815"/><path d="M71.83,27.94c0-3.89,2.4-6.22,5.56-6.22a4.75,4.75,0,0,1,3.54,1.51l-1,1.2a3.21,3.21,0,0,0-2.46-1.07c-2.22,0-3.69,1.71-3.69,4.51s1.31,4.57,3.77,4.57a3,3,0,0,0,1.88-.58v-2.8H77V27.52h4.07v5.16a5.32,5.32,0,0,1-3.77,1.4C74.15,34.08,71.83,31.84,71.83,27.94Z" style="fill:#231815"/><path d="M90.33,33.86l-2.7-4.8H85.7v4.8H83.83V22h3.9c2.46,0,4.3.87,4.3,3.45a3.31,3.31,0,0,1-2.49,3.41l2.91,5.05ZM85.7,27.55h1.8c1.73,0,2.67-.71,2.67-2.15s-.94-1.94-2.67-1.94H85.7Z" style="fill:#231815"/><path d="M96.29,29.35,92.71,22h2l1.37,3.16c.38.89.72,1.71,1.12,2.62h.07c.38-.91.77-1.73,1.13-2.62L99.8,22h2l-3.59,7.4v4.51H96.29Z" style="fill:#231815"/><polygon points="32.49 25.24 26.22 25.24 28.22 16.08 18.83 29.85 25.1 29.85 23.1 39.01 32.49 25.24" style="fill:#ea5966"/></svg>