<svg id="레이어_1" data-name="레이어 1" xmlns="http://www.w3.org/2000/svg" viewBox="0 0 180.15 57.06"><title>ITD</title><rect width="180.15" height="57.06" rx="14.17" ry="14.17" style="fill:#fff"/><path d="M53.94,27.8a55.43,55.43,0,0,1-8.84.53l-.17-1.26c1.1,0,2.37,0,3.68,0V25.66h1.65V27c1.22-.06,2.43-.14,3.57-.29ZM45.28,25c2-.25,3.25-1.13,3.33-2.14h-3v-1.2h3V20.54h1.64v1.15h3v1.2h-3c.08,1,1.4,1.78,3.32,2L53,26.12a5.13,5.13,0,0,1-3.56-1.87,4.91,4.91,0,0,1-3.61,2Zm3.14,8.63h8.39v1.23h-10V31.44h7.85v-1H46.75V29.23h9.53v3.36H48.42Zm9.84-9.81v1.36h-2v3.44H54.63V20.57h1.65v3.28Z"/><path d="M66.52,27.18a3.87,3.87,0,0,1-2.87,1.17,3.5,3.5,0,1,1,0-7,3.88,3.88,0,0,1,2.87,1.17H70v-2h1.64v8.53H70v-1.9ZM63.65,27a2.09,2.09,0,1,0-2.21-2.08A2,2,0,0,0,63.65,27Zm8.07,5.25C71.72,34,69.85,35,66.84,35S62,34,62,32.2s1.86-2.8,4.87-2.8S71.72,30.44,71.72,32.2Zm-1.63,0c0-1-1.19-1.5-3.25-1.5s-3.25.54-3.25,1.5,1.2,1.53,3.25,1.53S70.09,33.2,70.09,32.2Zm-2.82-8.3a3.73,3.73,0,0,1,.13,1,3.05,3.05,0,0,1-.15,1H70v-2Z"/><path d="M83.33,24.14a7,7,0,0,0,3.75,6.34l-1,1.31a7.25,7.25,0,0,1-3.59-4.34,7.54,7.54,0,0,1-3.68,4.66l-1-1.38a7.26,7.26,0,0,0,3.81-6.59V21.77h1.65Zm6.56-3.59v14.5H88.23V20.55Z"/><path d="M100.37,28.7a5.54,5.54,0,0,1-3.39-3A5.83,5.83,0,0,1,93.44,29l-.86-1.3a4.87,4.87,0,0,0,3.55-4.59v-.26H93.06V21.5h7.76v1.34h-3v.26a4.65,4.65,0,0,0,3.42,4.33ZM94.5,30H104v5h-1.65V31.31H94.5Zm11.55-4.37h-2v3.67h-1.65V20.55H104v3.7h2Z"/><path d="M112.45,22.79h3.38v1.35h-8.47V22.79h3.44v-2h1.65Zm2.79,5.75a3.6,3.6,0,1,1-3.59-3.38A3.37,3.37,0,0,1,115.24,28.54Zm-1.57,0a2,2,0,1,0-2,2A1.93,1.93,0,0,0,113.67,28.54Zm7.22-.79h-2.23V35H117V20.57h1.66v5.81h2.23Z"/><path d="M129.83,22.09c0,4.3-1.73,8-6.69,10.35l-.88-1.31c3.79-1.82,5.58-4.37,5.87-7.7H123V22.09Zm4.26-1.52V35h-1.65V20.57Z"/></svg>