<svg id="레이어_1" data-name="레이어 1" xmlns="http://www.w3.org/2000/svg" viewBox="0 0 343.53 256.29"><title>ITD</title><rect x="0.66" width="342.87" height="256.29" rx="18.69" ry="18.69" style="fill:#f6f7f9"/><path d="M213.38,91.91c-1.14-12.32-7.35-44.79-41.29-44.79h-.15c-40.92,0-41.53,47.21-41.54,49.36v.08c0,1.06,0,2.49.14,4.23.83,12.64,6.36,41.14,41.4,54.23h0v.1h.3V155h0c35-13.06,40.55-41.49,41.4-54.16v-.07c.12-1.77.14-3.23.14-4.29A28.69,28.69,0,0,0,213.38,91.91Z" style="fill:#fff"/><circle cx="159.59" cy="103.29" r="3"/><circle cx="183.91" cy="103.29" r="3"/><path d="M171.76,122.49a14,14,0,0,1-8.07-2.68l-.36-.25a1.39,1.39,0,1,1,1.58-2.28l.36.25a10.78,10.78,0,0,0,13.29-.23,1.39,1.39,0,0,1,1.64,2.24A14.22,14.22,0,0,1,171.76,122.49Z"/><rect x="82.02" y="177.01" width="180.15" height="57.06" rx="14.17" ry="14.17" style="fill:#fff"/><path d="M136,204.82a56.55,56.55,0,0,1-8.84.52l-.17-1.26c1.1,0,2.37,0,3.68,0v-1.38h1.65V204c1.22-.06,2.43-.14,3.57-.29Zm-8.66-2.77c2-.26,3.25-1.14,3.33-2.15h-3v-1.2h3v-1.15h1.64v1.15h3v1.2h-3c.08,1,1.4,1.78,3.32,2l-.56,1.2a5.13,5.13,0,0,1-3.56-1.87,4.94,4.94,0,0,1-3.61,2Zm3.14,8.62h8.39v1.24h-10v-3.46h7.85v-1h-7.89v-1.22h9.53v3.36h-7.86Zm9.84-9.81v1.36h-2v3.44h-1.65v-8.08h1.65v3.28Z"/><path d="M148.54,204.19a3.84,3.84,0,0,1-2.87,1.17,3.49,3.49,0,1,1,0-7,3.84,3.84,0,0,1,2.87,1.17H152v-2h1.64v8.54H152v-1.91Zm-2.87-.22a2.09,2.09,0,1,0-2.21-2.08A2,2,0,0,0,145.67,204Zm8.07,5.25c0,1.77-1.87,2.81-4.88,2.81s-4.87-1-4.87-2.81,1.86-2.8,4.87-2.8S153.74,207.46,153.74,209.22Zm-1.63,0c0-1-1.19-1.51-3.25-1.51s-3.25.55-3.25,1.51,1.2,1.52,3.25,1.52S152.11,210.21,152.11,209.22Zm-2.82-8.31a3.75,3.75,0,0,1,.13,1,3,3,0,0,1-.15,1H152v-2Z"/><path d="M165.35,201.15a7,7,0,0,0,3.75,6.34l-1,1.31a7.19,7.19,0,0,1-3.59-4.34,7.54,7.54,0,0,1-3.68,4.66l-1-1.38a7.26,7.26,0,0,0,3.81-6.59v-2.37h1.65Zm6.56-3.59v14.51h-1.66V197.56Z"/><path d="M182.39,205.71a5.54,5.54,0,0,1-3.39-3,5.83,5.83,0,0,1-3.54,3.3l-.86-1.3a4.87,4.87,0,0,0,3.55-4.59v-.26h-3.07v-1.34h7.76v1.34h-3v.26a4.67,4.67,0,0,0,3.42,4.34ZM176.52,207H186v5h-1.65v-3.71h-7.86Zm11.55-4.37h-2v3.67h-1.65v-8.73H186v3.7h2Z"/><path d="M194.47,199.8h3.38v1.35h-8.47V199.8h3.44v-2h1.65Zm2.79,5.75a3.6,3.6,0,1,1-3.59-3.38A3.36,3.36,0,0,1,197.26,205.55Zm-1.57,0a2,2,0,1,0-2,2A1.93,1.93,0,0,0,195.69,205.55Zm7.22-.78h-2.23v7.28H199V197.58h1.66v5.81h2.23Z"/><path d="M211.85,199.1c0,4.31-1.73,8-6.69,10.36l-.88-1.32c3.79-1.82,5.58-4.37,5.87-7.69H205V199.1Zm4.26-1.52V212h-1.65V197.58Z"/><path d="M151.2,142.38H137.29a7.43,7.43,0,0,1-7.43-7.43V121.08a2.5,2.5,0,1,1,5,0V135a2.43,2.43,0,0,0,2.43,2.43H151.2a2.5,2.5,0,0,1,0,5Z"/><path d="M206.89,142.38H193a2.5,2.5,0,0,1,0-5h13.91a2.44,2.44,0,0,0,2.44-2.43V121.08a2.5,2.5,0,0,1,5,0V135A7.44,7.44,0,0,1,206.89,142.38Z"/><path d="M211.83,85.12a2.5,2.5,0,0,1-2.5-2.5V68.75a2.43,2.43,0,0,0-2.44-2.43H193a2.5,2.5,0,0,1,0-5h13.91a7.44,7.44,0,0,1,7.44,7.43V82.62A2.5,2.5,0,0,1,211.83,85.12Z"/><path d="M132.36,85.12a2.5,2.5,0,0,1-2.5-2.5V68.75a7.43,7.43,0,0,1,7.43-7.43H151.2a2.5,2.5,0,1,1,0,5H137.29a2.43,2.43,0,0,0-2.43,2.43V82.62A2.5,2.5,0,0,1,132.36,85.12Z"/></svg>