<svg id="레이어_1" data-name="레이어 1" xmlns="http://www.w3.org/2000/svg" xmlns:xlink="http://www.w3.org/1999/xlink" viewBox="0 0 185.13 69.88"><defs><linearGradient id="무제_그라디언트_17" x1="13.46" y1="31.77" x2="110.36" y2="31.77" gradientUnits="userSpaceOnUse"><stop offset="0" stop-color="#2fbdf0"/><stop offset="0.5" stop-color="#fcc800"/><stop offset="1" stop-color="#eb6ea5"/></linearGradient><linearGradient id="무제_그라디언트_17-2" x1="218.73" y1="69" x2="234.32" y2="69" gradientTransform="translate(-31.63 119.21) rotate(-45)" xlink:href="#무제_그라디언트_17"/></defs><title>ITD</title><path d="M142.41,9a22.86,22.86,0,0,0-22,10.81,22.86,22.86,0,0,0-42.12,8.56H45.51A22.86,22.86,0,0,0,0,31.77H0V66.52a3.37,3.37,0,0,0,3.36,3.36h0a3.36,3.36,0,0,0,3.36-3.36V32a2.06,2.06,0,0,0,0-.26A16.14,16.14,0,0,1,39,31.69s0,0,0,.08A22.87,22.87,0,0,0,68.8,53.57a3.46,3.46,0,0,0,2.47-3.72,3.36,3.36,0,0,0-4.38-2.73,15.92,15.92,0,0,1-5,.8A16.17,16.17,0,0,1,46.1,35.14H117V66.52a3.37,3.37,0,0,0,3.37,3.36h0a3.37,3.37,0,0,0,3.36-3.36V31.77h0a16.14,16.14,0,1,1,16.14,16.15,16,16,0,0,1-5-.8,3.37,3.37,0,0,0-4.38,2.73A3.46,3.46,0,0,0,133,53.57,22.87,22.87,0,1,0,142.41,9ZM100.9,15.63a16.18,16.18,0,0,1,15.79,12.78H85.12A16.17,16.17,0,0,1,100.9,15.63Z"/><path d="M100.94,54.65A22.91,22.91,0,0,1,78.31,35.14h-.25V31.77a16.15,16.15,0,0,0-32.29-.59v.59a22.91,22.91,0,0,1-30,21.76,3.36,3.36,0,1,1,2.08-6.4A16.15,16.15,0,0,0,39,32.37v-.6a22.88,22.88,0,0,1,45.51-3.36h.25v3.36a16.17,16.17,0,0,0,16.15,16.16,16,16,0,0,0,5-.8,3.37,3.37,0,1,1,2.09,6.4A23,23,0,0,1,100.94,54.65Z" style="fill:url(#무제_그라디언트_17)"/><circle cx="177.33" cy="7.82" r="7.79" style="fill:url(#무제_그라디언트_17-2)"/></svg>