<svg id="레이어_1" data-name="레이어 1" xmlns="http://www.w3.org/2000/svg" viewBox="0 0 166.41 57.06"><title>ITD</title><rect width="166.41" height="57.06" rx="14.17" ry="14.17" style="fill:#f6f7f9"/><path d="M50,22h3.65c2.42,0,4.16.77,4.16,2.9a2.61,2.61,0,0,1-1.68,2.54v.08a2.7,2.7,0,0,1,2.32,2.8c0,2.34-1.9,3.46-4.51,3.46H50Zm3.44,4.91c1.8,0,2.55-.67,2.55-1.77s-.83-1.7-2.5-1.7H51.88v3.47Zm.29,5.41c1.84,0,2.9-.65,2.9-2.09s-1-1.91-2.9-1.91H51.88v4Z"/><path d="M60.69,22h1.86V32.22h5v1.57H60.69Z"/><path d="M69,28.73V22h1.86v6.85c0,2.66,1,3.52,2.53,3.52s2.57-.86,2.57-3.52V22h1.8v6.72C77.74,32.57,76,34,73.37,34S69,32.57,69,28.73Z"/><path d="M80.77,22h7v1.55H82.63v3.28H87v1.57H82.63v3.81h5.28v1.57H80.77Z"/><path d="M25.66,39.33a8.66,8.66,0,0,1-8.56-7.24A7.31,7.31,0,0,1,17,30.63c0-7.37,7.82-12.52,8.15-12.74l.55-.35.54.35c.34.22,8.16,5.37,8.16,12.74a7.27,7.27,0,0,1-.15,1.5A8.64,8.64,0,0,1,25.66,39.33Zm0-19.38C24,21.21,19,25.38,19,30.63a5.52,5.52,0,0,0,.1,1.09,6.69,6.69,0,0,0,13.19,0,5.48,5.48,0,0,0,.11-1.13C32.36,25.37,27.35,21.2,25.66,20Z" style="fill:#009fe8"/></svg>