<svg id="레이어_1" data-name="레이어 1" xmlns="http://www.w3.org/2000/svg" viewBox="0 0 166.41 57.06"><title>ITD</title><rect x="-0.12" width="166.41" height="57.06" rx="14.17" ry="14.17" style="fill:#f6f7f9"/><path d="M49.07,21.82h7.06v1.57H51V27h4.4V28.6H51v5.13H49.07Z" style="fill:#231815"/><path d="M58.23,21.82h7v1.57H60.11v3.32h4.37v1.58H60.11v3.86h5.34v1.58H58.23Z" style="fill:#231815"/><path d="M73.44,30.33H69.3l-1,3.4H66.37l3.95-11.91h2.17l4,11.91h-2ZM73,28.86l-.47-1.6c-.4-1.3-.76-2.62-1.13-4h-.07c-.34,1.36-.71,2.67-1.1,4l-.48,1.6Z" style="fill:#231815"/><path d="M84.51,33.73l-2.7-4.8H79.88v4.8H78V21.82h3.9c2.46,0,4.3.87,4.3,3.45a3.31,3.31,0,0,1-2.49,3.41l2.91,5Zm-4.63-6.31h1.8c1.73,0,2.67-.71,2.67-2.15s-.94-1.95-2.67-1.95h-1.8Z" style="fill:#231815"/><path d="M28.25,18.71c-.21,1.4-1.75,4.09-4,6.86s-4.62,4.79-5.95,5.27c.2-1.4,1.74-4.09,4-6.86s4.62-4.8,6-5.27m2.46-3-3.13,1.11c-2.6.92-5.89,4.73-6.83,5.88s-4.06,5.1-4.46,7.83l-.49,3.29,3.13-1.11c2.6-.92,5.89-4.74,6.83-5.88s4.06-5.1,4.46-7.83l.49-3.29Z" style="fill:#68579a"/><path d="M30.53,22.8c-.21,1.4-1.75,4.08-4,6.85s-4.62,4.8-5.95,5.27c.21-1.4,1.75-4.08,4-6.85s4.62-4.8,6-5.27m2.46-3-3.13,1.1c-2.6.93-5.88,4.74-6.83,5.89S19,31.9,18.57,34.63l-.49,3.29,3.14-1.11c2.6-.92,5.88-4.74,6.83-5.89s4.05-5.1,4.46-7.83L33,19.81Z" style="fill:#68579a"/><path d="M32.81,26.89c-.21,1.39-1.75,4.08-4,6.85s-4.62,4.8-6,5.27c.21-1.4,1.75-4.09,4-6.85s4.62-4.8,6-5.27m2.47-3L32.14,25c-2.6.92-5.88,4.74-6.82,5.88S21.26,36,20.85,38.72L20.37,42l3.13-1.11c2.6-.92,5.88-4.73,6.83-5.88s4.06-5.1,4.46-7.83l.49-3.29Z" style="fill:#68579a"/></svg>