<svg id="레이어_1" data-name="레이어 1" xmlns="http://www.w3.org/2000/svg" viewBox="0 0 166.41 57.06"><title>ITD</title><rect width="166.41" height="57.06" rx="14.17" ry="14.17" style="fill:#f6f7f9"/><path d="M34.84,37.71H16.48V19.35H34.84Zm-16.36-2H32.84V21.35H18.48Z" style="fill:#298966"/><path d="M49.38,27.93c0-3.84,2.34-6.15,5.31-6.15A4.55,4.55,0,0,1,58,23.27l-1,1.19a3.11,3.11,0,0,0-2.3-1.06c-2,0-3.44,1.7-3.44,4.47s1.31,4.51,3.39,4.51a3.44,3.44,0,0,0,2.61-1.25l1,1.17A4.64,4.64,0,0,1,54.61,34C51.65,34,49.38,31.79,49.38,27.93Z"/><path d="M65.8,30.43H61.7l-1,3.36H58.8L62.71,22h2.14l3.91,11.78h-2ZM65.35,29l-.46-1.58c-.4-1.28-.76-2.6-1.12-3.92H63.7c-.33,1.34-.7,2.64-1.09,3.92L62.13,29Z"/><path d="M70.31,22h1.86V32.22h5v1.57H70.31Z"/><path d="M79.22,22h2.13L83.51,28c.27.79.51,1.59.79,2.39h.08c.27-.8.49-1.6.76-2.39L87.27,22h2.15V33.79H87.69V28c0-1.05.14-2.57.24-3.65h-.07L86.92,27l-2,5.62H83.72L81.65,27l-.92-2.72h-.07c.08,1.08.23,2.6.23,3.65v5.83H79.22Z"/></svg>