<?xml version="1.0" encoding="utf-8"?>
<!-- Generator: Adobe Illustrator 22.0.1, SVG Export Plug-In . SVG Version: 6.00 Build 0)  -->
<svg version="1.1" xmlns="http://www.w3.org/2000/svg" x="0px"
	 y="0px" viewBox="0 0 20.6 19.7" style="enable-background:new 0 0 20.6 19.7;" xml:space="preserve">
<g>
	<g>
		<path d="M5.4,19.8H2.2c-1.2,0-2.2-1-2.2-2.2v-3.2c0-0.6,0.4-1,1-1s1,0.4,1,1v3.2c0,0.1,0.1,0.2,0.2,0.2h3.3c0.6,0,1,0.4,1,1
			S6,19.8,5.4,19.8z"/>
	</g>
	<g>
		<path d="M18.5,19.8h-3.3c-0.6,0-1-0.4-1-1s0.4-1,1-1h3.3c0.1,0,0.2-0.1,0.2-0.2v-3.2c0-0.6,0.4-1,1-1s1,0.4,1,1v3.2
			C20.6,18.8,19.6,19.8,18.5,19.8z"/>
	</g>
	<g>
		<path d="M19.6,6.4c-0.6,0-1-0.4-1-1V2.2c0-0.1-0.1-0.2-0.2-0.2h-3.3c-0.6,0-1-0.4-1-1s0.4-1,1-1h3.3c1.2,0,2.2,1,2.2,2.2v3.2
			C20.6,6,20.2,6.4,19.6,6.4z"/>
	</g>
	<g>
		<path d="M1,6.4c-0.6,0-1-0.4-1-1V2.2C0,1,1,0,2.2,0h3.3c0.6,0,1,0.4,1,1S6,2,5.4,2H2.2C2.1,2,2,2.1,2,2.2v3.2C2,6,1.6,6.4,1,6.4z"
			/>
	</g>
</g>
</svg>
