<?xml version="1.0" encoding="utf-8"?>
<!-- Generator: Adobe Illustrator 22.0.1, SVG Export Plug-In . SVG Version: 6.00 Build 0)  -->
<svg version="1.1" xmlns="http://www.w3.org/2000/svg" x="0px"
	 y="0px" viewBox="0 0 20.4 19.7" style="enable-background:new 0 0 20.4 19.7;" xml:space="preserve">
<g>
	<g>
		<g>
			<path d="M18.4,19.7H2.1c-1.1,0-2.1-0.9-2.1-2.1V6.3h20.5v11.3C20.5,18.7,19.6,19.7,18.4,19.7z M1.3,7.6v10c0,0.4,0.3,0.8,0.8,0.8
				h16.4c0.4,0,0.8-0.3,0.8-0.8v-10H1.3z"/>
		</g>
		<g>
			<path d="M20.5,7.6H0V1.8C0,0.8,0.8,0,1.8,0h3.9c0.4,0,0.8,0.1,1.2,0.4l2.2,1.7c0.1,0.1,0.2,0.1,0.3,0.1h9.3c1,0,1.8,0.8,1.8,1.8
				V7.6z M1.3,6.3h17.9V4c0-0.3-0.2-0.5-0.5-0.5H9.4C9,3.5,8.6,3.4,8.3,3.1L6.1,1.4C6,1.3,5.9,1.3,5.7,1.3H1.8
				c-0.3,0-0.5,0.2-0.5,0.5V6.3z"/>
		</g>
	</g>
</g>
</svg>
