<?xml version="1.0" encoding="utf-8"?>
<!-- Generator: Adobe Illustrator 22.0.1, SVG Export Plug-In . SVG Version: 6.00 Build 0)  -->
<svg version="1.1" xmlns="http://www.w3.org/2000/svg" x="0px"
	 y="0px" viewBox="0 0 20.5 19.3" style="enable-background:new 0 0 20.5 19.3;" xml:space="preserve">
<g>
	<g>
		<g>
			<path d="M18.7,19.3h-4.6c-1,0-1.8-0.8-1.8-1.8v-4.9c0-0.3-0.2-0.5-0.5-0.5H8.7c-0.3,0-0.5,0.2-0.5,0.5v4.9c0,1-0.8,1.8-1.8,1.8
				H1.8c-1,0-1.8-0.8-1.8-1.8v-9c0-0.6,0.3-1.1,0.7-1.4l8.4-6.7c0.7-0.5,1.6-0.5,2.2,0l8.4,6.7c0.4,0.3,0.7,0.9,0.7,1.4v9
				C20.5,18.5,19.7,19.3,18.7,19.3z M8.7,10.8h3.1c1,0,1.8,0.8,1.8,1.8v4.9c0,0.3,0.2,0.5,0.5,0.5h4.6c0.3,0,0.5-0.2,0.5-0.5v-9
				c0-0.2-0.1-0.3-0.2-0.4h0l-8.4-6.7c-0.2-0.1-0.4-0.1-0.6,0L1.5,8.1C1.4,8.2,1.3,8.3,1.3,8.5v9c0,0.3,0.2,0.5,0.5,0.5h4.6
				c0.3,0,0.5-0.2,0.5-0.5v-4.9C6.9,11.6,7.7,10.8,8.7,10.8z"/>
		</g>
	</g>
</g>
</svg>
