<?xml version="1.0" encoding="utf-8"?>
<!-- Generator: Adobe Illustrator 22.0.1, SVG Export Plug-In . SVG Version: 6.00 Build 0)  -->
<svg version="1.1" xmlns="http://www.w3.org/2000/svg" x="0px"
	 y="0px" viewBox="0 0 18 20.8" style="enable-background:new 0 0 18 20.8;" xml:space="preserve">
<g>
	<g>
		<path d="M-5.7,9.6c0.6,0.4,0.6,1,0,1.4l-7.2,4.8l-6.9,4.6c-0.7,0.5-1.4,0.2-1.4-0.7v-9.4V0.9c0-0.9,0.6-1.2,1.4-0.7l6.9,4.6
			L-5.7,9.6z"/>
	</g>
	<g>
		<path d="M-4.3,20.2c-0.7,0-1.2-0.6-1.2-1.2V1.8c0-0.7,0.6-1.2,1.2-1.2s1.2,0.6,1.2,1.2V19C-3.1,19.7-3.7,20.2-4.3,20.2z"/>
	</g>
</g>
<g>
	<g>
		<path d="M2.6,11.1C2,10.7,2,10,2.6,9.6l7.2-4.8l6.9-4.6C17.4-0.3,18,0,18,0.9v9.4v9.4c0,0.9-0.6,1.2-1.4,0.7l-6.9-4.6L2.6,11.1z"
			/>
	</g>
	<g>
		<path d="M1.2,0.5c0.7,0,1.2,0.6,1.2,1.2V19c0,0.7-0.6,1.2-1.2,1.2S0,19.7,0,19V1.7C0,1.1,0.5,0.5,1.2,0.5z"/>
	</g>
</g>
</svg>
