<?xml version="1.0" encoding="utf-8"?>
<!-- Generator: Adobe Illustrator 22.0.1, SVG Export Plug-In . SVG Version: 6.00 Build 0)  -->
<svg version="1.1" xmlns="http://www.w3.org/2000/svg" x="0px"
	 y="0px" viewBox="0 0 18 20.8" style="enable-background:new 0 0 18 20.8;" xml:space="preserve">
<g>
	<g>
		<path d="M15.4,9.6c0.6,0.4,0.6,1,0,1.4l-7.2,4.8l-6.9,4.6C0.6,21,0,20.7,0,19.8v-9.4V0.9C0,0,0.6-0.3,1.3,0.2l6.9,4.6L15.4,9.6z"
			/>
	</g>
	<g>
		<path d="M16.7,20.2c-0.7,0-1.2-0.6-1.2-1.2V1.8c0-0.7,0.6-1.2,1.2-1.2S18,1.1,18,1.8V19C18,19.7,17.4,20.2,16.7,20.2z"/>
	</g>
</g>
<g>
	<rect x="-189.7" y="82.1" width="375" height="61" fill="#F7F8F9"/>
	<rect x="-189.7" y="82.1" width="375" height="3" fill="#D3D1D6"/>
	<g>
		
			<text transform="matrix(1 0 0 1 -174.7973 118.7468)" style="font-family:'NotoSansCJKkr-Medium-KSCpc-EUC-H'; font-size:13.9253px;">Beautiful Mistakes</text>
	</g>
	<g>
		<g>
			<path d="M94.6,114.3c0.7,0.5,0.7,1.2,0,1.7l-8.4,5.6l-8.1,5.4c-0.9,0.6-1.6,0.2-1.6-0.8v-11v-11c0-1,0.7-1.4,1.6-0.8l8.1,5.4
				L94.6,114.3z"/>
		</g>
	</g>
	<g>
		<path d="M127.3,114.7c0.4,0.2,0.4,0.6,0,0.9l-4.4,2.9l-4.2,2.8c-0.5,0.3-0.8,0.1-0.8-0.4v-5.8v-5.8c0-0.5,0.4-0.7,0.8-0.4l4.2,2.8
			L127.3,114.7z"/>
		<line x1="128.1" y1="109.9" x2="128.1" y2="120.5" fill="none" stroke="#000000" stroke-width="1.5139" stroke-linecap="round" stroke-miterlimit="10"/>
	</g>
	<g>
		<path d="M40.4,115.6c-0.4-0.2-0.4-0.6,0-0.9l4.4-2.9L49,109c0.5-0.3,0.8-0.1,0.8,0.4v5.8v5.8c0,0.5-0.4,0.7-0.8,0.4l-4.2-2.8
			L40.4,115.6z"/>
		<line x1="39.6" y1="120.5" x2="39.6" y2="109.9" fill="none" stroke="#000000" stroke-width="1.5139" stroke-linecap="round" stroke-miterlimit="10"/>
	</g>
	<line x1="154.8" y1="108.8" x2="165.3" y2="108.8" fill="none" stroke="#000000" stroke-width="1.5139" stroke-linecap="round" stroke-miterlimit="10"/>
	<line x1="154.8" y1="113.8" x2="165.3" y2="113.8" fill="none" stroke="#000000" stroke-width="1.5139" stroke-linecap="round" stroke-miterlimit="10"/>
	<line x1="154.8" y1="118.7" x2="161.6" y2="118.7" fill="none" stroke="#000000" stroke-width="1.5139" stroke-linecap="round" stroke-miterlimit="10"/>
	<circle cx="167" cy="119.9" r="2.6"/>
	<line x1="168.8" y1="108.5" x2="168.8" y2="120.1" fill="none" stroke="#000000" stroke-width="1.5828" stroke-linecap="round" stroke-miterlimit="10"/>
	<path d="M-33.1,85.1h-156.6v-3h156.6c0.8,0,1.5,0.7,1.5,1.5l0,0C-31.6,84.4-32.3,85.1-33.1,85.1z"/>
</g>
</svg>
