<?xml version="1.0" encoding="utf-8"?>
<!-- Generator: Adobe Illustrator 22.0.1, SVG Export Plug-In . SVG Version: 6.00 Build 0)  -->
<svg version="1.1" xmlns="http://www.w3.org/2000/svg" x="0px"
	 y="0px" viewBox="0 0 19.5 19.6" style="enable-background:new 0 0 19.5 19.6;" xml:space="preserve">
<g>
	<g>
		<g>
			<path d="M8.5,17.1C3.8,17.1,0,13.2,0,8.5S3.8,0,8.5,0s8.5,3.8,8.5,8.5S13.2,17.1,8.5,17.1z M8.5,1.3c-4,0-7.2,3.2-7.2,7.2
				c0,4,3.2,7.2,7.2,7.2s7.2-3.2,7.2-7.2C15.7,4.6,12.5,1.3,8.5,1.3z"/>
		</g>
		<g>
			<path d="M18.9,19.7c-0.2,0-0.3-0.1-0.5-0.2l-4.8-4.9c-0.3-0.3-0.3-0.7,0-1c0.3-0.3,0.7-0.3,1,0l4.8,4.9c0.3,0.3,0.3,0.7,0,1
				C19.2,19.6,19,19.7,18.9,19.7z"/>
		</g>
	</g>
</g>
</svg>
